<svg viewBox="0 0 800 193" xmlns="http://www.w3.org/2000/svg" aria-label="Eureka" style="flex:0 0 auto;">
        <path d="M137.76 34.4489H39.4751V73.9495H129.697V106.263H39.4751V154.097H142.295V187.542H1.54761V1.50791H137.76V34.4489Z" fill="#fff"/>
        <path d="M186.071 49.9693V132.89C186.071 140.716 186.991 146.607 188.828 150.566C192.09 157.546 198.483 161.036 208.012 161.036C220.213 161.036 228.572 156.076 233.089 146.143C235.426 140.757 236.599 133.649 236.599 124.814V49.9693H273.014V187.542H238.113V168.106C237.778 168.526 236.936 169.786 235.599 171.89C234.257 173.993 232.669 175.847 230.825 177.441C225.214 182.494 219.787 185.947 214.554 187.792C209.317 189.644 203.179 190.57 196.146 190.57C175.872 190.57 162.219 183.254 155.181 168.611C151.245 160.533 149.279 148.629 149.279 132.89V49.9693H186.071Z" fill="#fff"/>
        <path d="M359.699 46.7531C360.16 46.7968 361.192 46.8588 362.786 46.9438V83.7953C360.518 83.5449 358.504 83.3771 356.74 83.2921C354.973 83.2071 353.544 83.1635 352.452 83.1635C338.005 83.1635 328.302 87.8782 323.347 97.303C320.574 102.604 319.188 110.765 319.188 121.784V187.542H283.023V49.9698H317.301V73.95C322.845 64.7802 327.676 58.5123 331.791 55.1463C338.51 49.5102 347.245 46.6888 357.999 46.6888C358.669 46.6888 359.235 46.7117 359.699 46.7531Z" fill="#fff"/>
        <path d="M406.703 83.8293C401.626 89.0702 398.44 96.1698 397.137 105.128H459.001C458.354 95.5794 455.168 88.335 449.436 83.3905C443.715 78.446 436.613 75.9692 428.141 75.9692C418.918 75.9692 411.779 78.5954 406.703 83.8293ZM460.426 52.7609C470.01 57.0575 477.919 63.84 484.161 73.1063C489.788 81.2859 493.435 90.7612 495.107 101.553C496.069 107.872 496.461 116.972 496.291 128.851H396.251C396.813 142.658 401.601 152.324 410.616 157.879C416.103 161.335 422.703 163.056 430.415 163.056C438.597 163.056 445.245 160.951 450.358 156.749C453.145 154.474 455.611 151.32 457.749 147.283H494.417C493.444 155.444 489.008 163.729 481.103 172.143C468.799 185.517 451.571 192.208 429.426 192.208C411.148 192.208 395.022 186.567 381.05 175.288C367.078 164.002 360.09 145.644 360.09 120.205C360.09 96.3766 366.396 78.1037 379.01 65.3863C391.625 52.6713 407.996 46.3092 428.128 46.3092C440.081 46.3092 450.849 48.4598 460.426 52.7609Z" fill="#fff"/>
        <path d="M498.846 2.1384H534.127V102.496L579.422 50.6021H624.082L574.848 101.85L625.986 187.542H582.276L549.005 128.765L534.127 144.253V187.542H498.846V2.1384Z" fill="#fff"/>
        <path d="M706.199 120.651C703.898 122.084 701.581 123.24 699.239 124.118C696.894 125.002 693.683 125.827 689.595 126.581L681.415 128.095C673.756 129.444 668.253 131.082 664.915 133.014C659.251 136.295 656.43 141.389 656.43 148.289C656.43 154.433 658.16 158.869 661.612 161.606C665.066 164.34 669.267 165.705 674.215 165.705C682.062 165.705 689.292 163.435 695.899 158.892C702.51 154.347 705.944 146.062 706.199 134.03V120.651ZM684.241 103.864C690.928 103.026 695.704 101.971 698.587 100.707C703.751 98.52 706.327 95.1149 706.327 90.4852C706.327 84.8445 704.345 80.9593 700.386 78.8087C696.426 76.6673 690.616 75.592 682.952 75.592C674.352 75.592 668.266 77.6943 664.688 81.9059C662.128 85.0168 660.433 89.2261 659.582 94.5267H624.923C625.687 82.4941 629.061 72.6074 635.053 64.8644C644.584 52.7468 660.951 46.6903 684.156 46.6903C699.257 46.6903 712.67 49.6749 724.396 55.6487C736.123 61.6271 741.988 72.8992 741.988 89.4742V152.585C741.988 156.958 742.071 162.256 742.24 168.478C742.49 173.202 743.206 176.393 744.381 178.073C745.557 179.759 747.321 181.145 749.673 182.238V187.541H710.612C709.516 184.768 708.763 182.162 708.343 179.716C707.919 177.278 707.586 174.5 707.336 171.389C702.352 176.768 696.605 181.356 690.095 185.142C682.324 189.602 673.536 191.835 663.738 191.835C651.232 191.835 640.898 188.276 632.743 181.168C624.593 174.059 620.519 163.984 620.519 150.938C620.519 134.03 627.079 121.786 640.196 114.213C647.38 110.091 657.967 107.148 671.928 105.381L684.241 103.864Z" fill="#fff"/>
        <path d="M797.245 187.543H761.864V152.105H797.245V187.543ZM759.478 2.27957H799.871L794.378 130.797H764.972L759.478 2.27957Z" fill="#FF671D"/>
      </svg>