<svg width="800" height="87" viewBox="0 0 800 87" fill="none" xmlns="http://www.w3.org/2000/svg">
<g clip-path="url(#clip0_46_2)">
<path d="M559.054 45.9932H598.078V43.8864H559.054V45.9932Z" fill="white"/>
<path d="M772.588 9.07085L778.917 25.4372H766.196L772.588 9.07085ZM752.41 46.0841C755.543 46.0841 757.549 45.2026 758.614 43.6297C759.679 45.2026 761.935 46.0841 764.817 46.0841H766.823V44.5099C762.937 43.4397 760.682 41.2995 762.311 36.4527L764.817 29.025H780.296L783.491 37.5229C784.87 41.2374 783.93 43.3777 779.419 44.5099V46.0841H782.991C786.124 46.0841 788.129 45.2026 789.195 43.6297C790.26 45.2026 792.516 46.0841 795.398 46.0841H798.845V44.5099C795.398 43.3144 794.332 40.1672 792.516 35.5713L781.925 8.81883C780.985 6.42652 779.982 4.09752 780.358 1.64189C775.784 1.64189 773.591 2.39794 772.462 4.09752C771.397 2.52333 769.329 1.64189 766.886 1.64189H764.692V3.21607C768.39 3.72011 769.894 6.80392 768.264 11.0212L758.3 36.7681C756.796 40.5446 755.355 43.0623 751.72 44.5099V46.0841H752.41ZM727.594 11.3999C726.906 5.98579 728.535 4.66363 732.295 3.21607V1.64189H730.729C728.096 1.64189 725.903 2.52333 724.9 4.09752C723.898 2.52333 722.018 1.64189 719.072 1.64189H718.257C718.257 5.10435 717.506 7.49666 716.253 10.2664L706.038 32.9282L696.513 10.6438C695.197 7.62205 693.881 4.91565 693.881 1.64189H693.379C690.685 1.64189 688.617 2.52333 687.615 4.09752C686.611 2.52333 684.731 1.64189 681.786 1.64189H679.907V3.21607C684.168 4.47492 685.17 6.61522 684.419 11.8406L680.658 36.6415C679.844 41.8035 678.466 43.251 674.455 44.5099V46.0841H675.582C678.653 46.0841 680.721 45.2026 681.786 43.6297C682.852 45.2026 685.107 46.0841 687.991 46.0841H689.807V44.5099C684.105 42.999 683.478 39.7265 683.792 37.1455L687.427 12.218L701.965 46.0841H704.346L718.884 12.5321L721.767 36.6415C722.331 40.7333 721.641 43.1257 715.939 44.5099V46.0841H720.451C723.647 46.0841 725.59 45.2026 726.655 43.6297C727.721 45.2026 729.976 46.0841 732.859 46.0841H737.182V44.5099C731.982 43.1257 731.355 40.4813 730.854 36.6415L727.594 11.3999ZM633.723 9.07085L640.052 25.4372H627.331L633.723 9.07085ZM613.544 46.0841C616.677 46.0841 618.683 45.2026 619.749 43.6297C620.814 45.2026 623.069 46.0841 625.951 46.0841H627.957V44.5099C624.072 43.4397 621.816 41.2995 623.445 36.4527L625.951 29.025H641.431L644.627 37.5229C646.005 41.2374 645.064 43.3777 640.553 44.5099V46.0841H644.125C647.258 46.0841 649.264 45.2026 650.329 43.6297C651.395 45.2026 653.65 46.0841 656.532 46.0841H659.979V44.5099C656.532 43.3144 655.467 40.1672 653.65 35.5713L643.06 8.81883C642.119 6.42652 641.117 4.09752 641.493 1.64189C636.919 1.64189 634.725 2.39794 633.597 4.09752C632.531 2.52333 630.464 1.64189 628.02 1.64189H625.827V3.21607C629.524 3.72011 631.029 6.80392 629.398 11.0212L619.435 36.7681C617.931 40.5446 616.49 43.0623 612.855 44.5099V46.0841H613.544ZM597.566 19.5836H595.999C594.182 26.7593 589.545 30.4105 583.216 30.4105C576.573 30.4738 574.693 27.8295 574.693 22.038V10.2031C574.693 6.61522 575.946 4.60031 581.335 3.21607V1.64189H576.447C573.565 1.64189 571.309 2.52333 570.244 4.09752C569.179 2.52333 567.11 1.64189 564.04 1.64189H559.089V3.21607C564.541 4.60031 565.607 6.74061 565.607 10.2031V23.4235C565.607 27.8928 564.603 30.2839 559.089 31.6694V33.2435H564.04C567.11 33.2435 569.179 32.3621 570.244 30.7879C571.309 32.3621 573.565 33.2435 576.447 33.2435H592.239C594.182 33.2435 595.435 33.2435 595.999 34.5645H597.566V33.3056C597.566 30.9133 596.688 29.4657 595.122 29.2137C596.751 27.8295 597.566 26.1299 597.566 22.7308V19.5836ZM542.922 32.4242H541.356C539.538 39.5999 534.901 43.251 528.572 43.251C521.929 43.3144 520.05 40.67 520.05 34.8798V10.2031C520.05 6.61522 521.303 4.60031 526.692 3.21607V1.64189H521.805C518.921 1.64189 516.666 2.52333 515.6 4.09752C514.535 2.52333 512.467 1.64189 509.396 1.64189H504.446V3.21607C509.898 4.60031 510.963 6.74061 510.963 10.2031V36.264C510.963 40.7333 509.961 43.1257 504.446 44.5099V46.0841H509.396C512.467 46.0841 514.535 45.2026 515.6 43.6297C516.666 45.2026 518.921 46.0841 521.805 46.0841H537.595C539.538 46.0841 540.791 46.0841 541.356 47.4062H542.922V46.1474C542.922 43.7551 542.045 42.3075 540.479 42.0555C542.108 40.67 542.922 38.9705 542.922 35.5713V32.4242ZM456.258 1.64189H451.056C448.237 1.64189 445.919 2.52333 444.853 4.09752C443.788 2.52333 441.782 1.64189 438.649 1.64189H433.698V3.21607C438.774 4.34953 440.404 6.3632 440.404 10.2031V37.5229C440.404 40.922 439.15 43.3777 433.698 44.5099V46.0841H438.649C441.719 46.0841 443.788 45.2026 444.853 43.6297C445.919 45.2026 448.237 46.0841 451.056 46.0841H456.195V44.5099C450.744 43.3777 449.427 41.0487 449.427 37.5229V10.2031C449.427 6.93056 450.493 4.41161 456.258 3.21607V1.64189ZM383.253 46.0841C386.324 46.0841 388.392 45.2026 389.457 43.6297C390.522 45.2026 392.778 46.0841 395.661 46.0841H401.176V44.5099C394.596 43.4397 393.969 40.5446 393.969 37.5229V24.1783H398.168C404.058 24.1783 408.007 26.192 408.507 30.5359H409.948V29.0883C409.948 26.192 409.072 23.9263 407.505 22.8562C409.072 21.786 409.948 19.7711 409.948 16.624V15.5538H408.445C408.068 19.457 403.682 21.3453 398.794 21.3453H393.969V10.6438C393.969 6.48983 395.473 4.28622 400.862 4.41161C409.322 4.53824 414.085 7.87407 415.901 15.3018H417.469V11.7773C417.469 8.81883 416.779 6.80392 415.025 5.29305C416.591 5.10435 417.469 3.65679 417.469 1.32779V0.19433H415.901C415.275 1.64189 414.148 1.64189 412.205 1.64189H399.421C393.531 1.64189 391.149 2.52333 389.457 4.09752C388.392 2.52333 386.324 1.64189 383.253 1.64189H378.428V3.21607C384.569 4.66363 384.882 7.30796 384.882 10.5184V37.5229C384.882 41.1107 383.504 43.5031 378.365 44.5099V46.0841H383.253ZM362.137 32.4242H360.57C358.752 39.5999 354.114 43.251 347.786 43.251C341.143 43.3144 339.263 40.67 339.263 34.8798V10.2031C339.263 6.61522 340.516 4.60031 345.906 3.21607V1.64189H341.018C338.136 1.64189 335.879 2.52333 334.814 4.09752C333.748 2.52333 331.681 1.64189 328.609 1.64189H323.66V3.21607C329.111 4.60031 330.177 6.74061 330.177 10.2031V36.264C330.177 40.7333 329.174 43.1257 323.66 44.5099V46.0841H328.609C331.681 46.0841 333.748 45.2026 334.814 43.6297C335.879 45.2026 338.136 46.0841 341.018 46.0841H356.81C358.752 46.0841 360.006 46.0841 360.57 47.4062H362.137V46.1474C362.137 43.7551 361.259 42.3075 359.692 42.0555C361.321 40.67 362.137 38.9705 362.137 35.5713V32.4242ZM282.301 9.07085L288.63 25.4372H275.909L282.301 9.07085ZM262.122 46.0841C265.255 46.0841 267.261 45.2026 268.327 43.6297C269.392 45.2026 271.647 46.0841 274.531 46.0841H276.535V44.5099C272.65 43.4397 270.394 41.2995 272.023 36.4527L274.531 29.025H290.009L293.205 37.5229C294.583 41.2374 293.644 43.3777 289.132 44.5099V46.0841H292.703C295.836 46.0841 297.842 45.2026 298.907 43.6297C299.973 45.2026 302.228 46.0841 305.112 46.0841H308.557V44.5099C305.112 43.3144 304.046 40.1672 302.228 35.5713L291.638 8.81883C290.697 6.42652 289.695 4.09752 290.071 1.64189C285.497 1.64189 283.303 2.39794 282.176 4.09752C281.111 2.52333 279.042 1.64189 276.598 1.64189H274.405V3.21607C278.103 3.72011 279.607 6.80392 277.976 11.0212L268.013 36.7681C266.509 40.5446 265.068 43.0623 261.433 44.5099V46.0841H262.122ZM237.308 11.3999C236.619 5.98579 238.248 4.66363 242.007 3.21607V1.64189H240.441C237.809 1.64189 235.615 2.52333 234.613 4.09752C233.611 2.52333 231.731 1.64189 228.786 1.64189H227.97C227.97 5.10435 227.219 7.49666 225.965 10.2664L215.751 32.9282L206.226 10.6438C204.91 7.62205 203.593 4.91565 203.593 1.64189H203.093C200.397 1.64189 198.33 2.52333 197.327 4.09752C196.324 2.52333 194.444 1.64189 191.499 1.64189H189.619V3.21607C193.881 4.47492 194.883 6.61522 194.131 11.8406L190.372 36.6415C189.556 41.8035 188.178 43.251 184.168 44.5099V46.0841H185.295C188.366 46.0841 190.434 45.2026 191.499 43.6297C192.564 45.2026 194.821 46.0841 197.703 46.0841H199.52V44.5099C193.818 42.999 193.191 39.7265 193.505 37.1455L197.14 12.218L211.677 46.0841H214.059L228.598 12.5321L231.48 36.6415C232.043 40.7333 231.355 43.1257 225.651 44.5099V46.0841H230.164C233.36 46.0841 235.303 45.2026 236.368 43.6297C237.433 45.2026 239.689 46.0841 242.572 46.0841H246.895V44.5099C241.695 43.1257 241.068 40.4813 240.566 36.6415L237.308 11.3999ZM143.435 9.07085L149.764 25.4372H137.043L143.435 9.07085ZM123.257 46.0841C126.39 46.0841 128.396 45.2026 129.461 43.6297C130.526 45.2026 132.782 46.0841 135.665 46.0841H137.67V44.5099C133.784 43.4397 131.529 41.2995 133.158 36.4527L135.665 29.025H151.144L154.34 37.5229C155.718 41.2374 154.778 43.3777 150.266 44.5099V46.0841H153.838C156.971 46.0841 158.977 45.2026 160.042 43.6297C161.107 45.2026 163.363 46.0841 166.246 46.0841H169.692V44.5099C166.246 43.3144 165.181 40.1672 163.363 35.5713L152.772 8.81883C151.832 6.42652 150.83 4.09752 151.205 1.64189C146.631 1.64189 144.438 2.39794 143.311 4.09752C142.245 2.52333 140.176 1.64189 137.733 1.64189H135.539V3.21607C139.237 3.72011 140.741 6.80392 139.111 11.0212L129.147 36.7681C127.643 40.5446 126.202 43.0623 122.567 44.5099V46.0841H123.257Z" fill="white"/>
<path d="M0.240234 46.2085H80.3813V44.1017H0.240234V46.2085Z" fill="white"/>
<path d="M0.240234 3.97803H80.3813V1.87126H0.240234V3.97803Z" fill="white"/>
<path d="M80.2817 35.3037V34.7028C80.2817 33.5954 79.8355 32.8431 79.1175 32.755C79.8936 32.092 80.2817 31.2218 80.2817 29.66V28.1553H79.5389C78.6392 31.7332 76.2762 33.3273 72.597 33.3273C69.1847 33.3273 68.8881 31.8835 68.8881 29.9915V24.2174H70.5034C73.3459 24.2174 75.201 25.2391 75.442 27.2565H76.1242V26.5638C76.1242 25.2701 75.7077 24.0982 74.96 23.5892C75.7077 23.0802 76.1242 22.0585 76.1242 20.6171V20.1056H75.4086C75.2294 21.9691 73.1655 22.8704 70.8 22.8704H68.8881V17.9095C68.8881 15.9566 69.1575 14.7549 72.3597 14.7549C76.2762 14.7549 78.6392 16.3762 79.5389 19.9827H80.2817V18.4222C80.2817 16.9163 79.8936 16.046 79.1175 15.3247C79.8936 15.2353 80.2817 14.5153 80.2817 13.4377V12.776H79.5389C79.2399 13.4662 78.6998 13.4662 77.7716 13.4662H71.6997C69.066 13.4662 67.6917 13.825 66.8241 14.6345C66.3149 13.8858 65.3312 13.4662 63.8629 13.4662H61.4727V14.2148C63.9247 14.6928 64.555 15.8672 64.555 17.5507V30.5923C64.555 32.2422 63.9853 33.4452 61.5036 33.9257V34.6743H63.8629C65.3312 34.6743 66.3149 34.2547 66.8241 33.5061C67.7498 34.2547 68.8559 34.6743 71.6997 34.6743H77.7716C78.6998 34.6743 79.2399 34.6743 79.5389 35.3037H80.2817ZM54.1415 13.4662H51.7784C50.3127 13.4662 49.3264 13.8858 48.8197 14.6345C48.3093 13.8858 47.2044 13.4662 45.8585 13.4662H43.3757V14.154C45.9191 14.7549 46.6396 15.7481 46.6396 17.5507V22.9287H36.3435V17.5507C36.3435 15.7754 37.0331 14.7549 39.6062 14.154V13.4662H37.1245C35.7787 13.4662 34.6725 13.8858 34.1633 14.6345C33.6566 13.8858 32.6704 13.4662 31.2046 13.4662H28.8416V14.154C31.3233 14.7549 32.0104 15.8064 32.0104 17.5507V30.5898C32.0104 32.2733 31.3851 33.3832 28.8107 33.9865V34.6743H31.2046C32.6976 34.6743 33.6566 34.2572 34.1633 33.5061C34.6725 34.2572 35.7453 34.6743 37.1245 34.6743H39.5753V33.9865C37.1245 33.3832 36.3435 32.4235 36.3435 30.5898V24.6693H46.6396V30.5898C46.6396 32.3031 46.0402 33.3248 43.4374 33.9865V34.6743H45.8585C47.2044 34.6743 48.3093 34.2572 48.8197 33.5061C49.3264 34.2572 50.3127 34.6743 51.7784 34.6743H54.1415V33.9865C51.2408 33.2938 50.9714 31.9443 50.9714 30.5898V17.5507C50.9714 15.7145 51.7784 14.7549 54.1415 14.154V13.4662ZM7.96379 34.6743C9.42955 34.6743 10.4158 34.2572 10.9225 33.5061C11.4317 34.2572 12.5378 34.6743 13.8837 34.6743H16.9054V33.9257C13.4931 33.2665 13.136 32.1529 13.136 30.5923V17.9988C13.136 16.2881 13.5265 14.7549 15.7672 14.7549C17.5629 14.7549 19.7195 16.5265 20.7058 19.9827H21.4485V18.4197C21.4485 17.0392 21.1519 16.1068 20.2881 15.3247C21.0333 15.2353 21.4485 14.5451 21.4485 13.4377V12.776H20.7058C20.4067 13.4662 19.8666 13.4662 18.9113 13.4662H2.9362C1.98086 13.4662 1.44078 13.4662 1.14169 12.776H0.398926V13.4377C0.398926 14.5451 0.814187 15.2353 1.55943 15.3247C0.695542 16.1068 0.398926 17.0392 0.398926 18.4197V19.9827H1.14169C2.12793 16.5265 4.28332 14.7549 6.0803 14.7549C8.32096 14.7549 8.7424 16.2881 8.7424 17.9988V30.5923C8.7424 32.1814 8.29377 33.2665 4.97294 33.9257V34.6743H7.96379Z" fill="white"/>
<path d="M127.83 71.1355C126.051 71.2944 125.852 71.3329 125.852 71.8903C125.852 72.7246 126.961 75.6247 127.475 76.896L129.689 82.5769C129.886 82.0195 130.875 79.5564 131.112 79.0797C131.351 78.5235 132.497 76.1002 132.734 75.5837C131.112 71.2547 130.559 71.2137 129.294 71.0958V70.4602C130.679 70.5409 132.141 70.5409 132.417 70.5409C132.892 70.5409 134.672 70.5409 136.214 70.4204L136.175 71.0561C134.83 71.1753 134.078 71.2547 134.078 72.1287C134.078 73.3205 136.768 79.8345 137.994 82.6154C138.706 81.0276 141.354 73.5974 141.354 72.7246C141.354 71.2137 139.576 71.1753 138.666 71.1753V70.4986C140.524 70.5409 141.79 70.5409 142.581 70.5409C143.015 70.5409 144.994 70.4602 145.428 70.4602L145.388 71.0561C144.282 71.1355 143.213 71.1753 142.026 74.3534L138.033 85.1579C137.875 85.5949 137.559 86.5869 137.48 86.8662H136.807C136.491 85.436 135.107 81.7017 135.107 81.662L133.169 76.7768L131.982 79.3975C130.282 83.1319 129.926 84.2033 129.176 86.8662H128.503C128.266 85.9922 125.221 76.6563 123.441 73.0809C122.532 71.2547 122.215 71.2137 120.396 71.0958V70.4602C121.068 70.4204 124.034 70.5409 124.666 70.5409C125.735 70.5409 126.131 70.5409 127.83 70.4602V71.1355Z" fill="white"/>
<path d="M164.097 85.6741C167.062 85.6741 168.92 82.7343 168.92 79.9137C168.92 75.4258 166.35 71.2147 162.515 71.2147C159.469 71.2147 157.611 73.9149 157.611 77.0546C157.611 81.185 159.984 85.6741 164.097 85.6741ZM163.266 70.1818C168.328 70.1818 171.451 74.2327 171.451 78.3643C171.451 82.933 167.497 86.707 163.029 86.707C158.402 86.707 155.08 82.933 155.08 78.3643C155.08 73.9956 158.916 70.1818 163.266 70.1818Z" fill="white"/>
<path d="M192.452 85.6741C195.416 85.6741 197.275 82.7343 197.275 79.9137C197.275 75.4258 194.705 71.2147 190.87 71.2147C187.824 71.2147 185.966 73.9149 185.966 77.0546C185.966 81.185 188.339 85.6741 192.452 85.6741ZM191.621 70.1818C196.683 70.1818 199.806 74.2327 199.806 78.3643C199.806 82.933 195.852 86.707 191.384 86.707C186.757 86.707 183.435 82.933 183.435 78.3643C183.435 73.9956 187.271 70.1818 191.621 70.1818Z" fill="white"/>
<path d="M218.989 85.6742C222.706 85.6742 225.87 83.0522 225.87 78.4836C225.87 74.5121 223.024 71.1353 218.87 71.1353C218.672 71.1353 217.367 71.0559 216.063 71.4532C215.983 72.4861 215.865 74.4314 215.865 78.6028C215.865 82.0193 215.983 83.7288 216.103 85.118C216.972 85.3961 217.922 85.6742 218.989 85.6742ZM211.357 85.7946C212.543 85.7524 212.978 85.596 213.176 85.118C213.453 84.3235 213.453 80.5109 213.453 79.2384C213.453 77.0944 213.295 72.8039 213.176 72.208C213.058 71.3327 212.346 71.2148 211.436 71.1751V70.5407H214.282C215.43 70.5407 216.38 70.4985 217.169 70.46C218.12 70.4202 218.83 70.2998 219.542 70.2998C225.435 70.2998 228.678 74.4724 228.678 78.4451C228.678 81.8616 226.068 86.4688 219.148 86.4688C218.792 86.4688 217.724 86.429 216.696 86.3893C215.666 86.3893 214.679 86.3496 214.323 86.3496C213.848 86.3496 212.187 86.3893 211.357 86.429V85.7946Z" fill="white"/>
<path d="M258.537 70.5405C259.367 70.461 259.446 70.4201 260.039 70.4201C260.474 70.4201 261.661 70.461 262.808 70.4995C263.955 70.5405 265.102 70.5405 265.497 70.5405C268.028 70.5405 268.582 70.5405 270.874 70.3009C270.874 70.9775 270.677 73.3201 270.716 73.7969L270.085 73.8366C269.965 73.3201 269.768 72.6051 269.215 72.1681C268.62 71.6926 267.158 71.3338 265.299 71.3338C265.061 71.3338 264.23 71.3748 263.282 71.4939L263.243 74.1941C263.243 75.4654 263.164 76.7354 263.243 77.6901C264.271 77.8093 264.547 77.849 265.537 77.849C268.701 77.849 268.818 77.2929 269.016 76.0613H269.609C269.648 77.6107 269.648 79.1191 269.531 80.6299H268.976C268.898 80.0328 268.701 79.3177 268.345 79.1998C267.83 78.9614 266.011 78.6436 264.627 78.6436C264.429 78.6436 263.836 78.6436 263.202 78.723L263.124 81.8205C263.085 82.774 263.085 84.6411 263.401 85.0384C263.874 85.6343 265.773 85.7945 266.169 85.8329V86.5083C264.983 86.4301 264.311 86.3904 263.757 86.3904C263.243 86.3494 262.887 86.3494 262.373 86.3494C261.898 86.3494 260.198 86.3904 258.655 86.5083L258.695 85.9136C259.367 85.7945 260.277 85.5549 260.435 84.841C260.514 84.4028 260.751 81.345 260.751 78.6436C260.751 72.8832 260.712 72.2475 260.277 71.5722C259.96 71.0954 259.288 71.016 258.537 70.9775V70.5405Z" fill="white"/>
<path d="M280.645 70.4202L282.029 70.46C282.622 70.46 283.176 70.5407 284.521 70.5407C285.865 70.5407 286.538 70.4985 287.169 70.46H288.909V71.1353C288.514 71.0956 286.933 70.9764 286.457 71.771C286.103 72.4078 286.063 74.0342 286.063 80.4302C286.063 81.3837 286.063 84.4824 286.221 85.0373C286.457 85.8331 287.169 85.8331 288.752 85.8331L288.792 86.4688C288.198 86.4688 285.627 86.3496 285.113 86.3496H282.82C282.423 86.3496 280.764 86.4303 280.447 86.4303V85.8728C280.961 85.8331 282.86 85.6742 283.254 84.9591C283.73 84.1249 283.69 80.5109 283.69 79.1987C283.69 78.0478 283.651 72.9231 283.334 72.1285C283.137 71.6121 282.74 71.1751 280.645 71.0956V70.4202Z" fill="white"/>
<path d="M304.214 77.8886C304.688 77.9668 305.44 77.9668 305.914 77.9668C306.506 77.9668 309.83 77.9668 309.83 74.7899C309.83 73.32 308.762 71.176 305.954 71.176C304.293 71.176 304.293 71.3746 304.253 74.076L304.214 77.8886ZM299.626 70.4199C300.14 70.4609 300.615 70.4994 301.129 70.4994C301.605 70.5403 302.119 70.5403 302.592 70.5403C302.95 70.5403 303.858 70.4609 304.767 70.3802C305.677 70.3007 306.349 70.3007 306.903 70.3007C310.265 70.3007 312.4 72.1282 312.4 74.5925C312.4 76.816 310.383 78.1667 308.801 78.564C312.083 83.3312 312.677 84.0463 313.941 85.2369C314.1 85.397 315.09 86.3095 316.314 86.3902L316.276 86.9849C313.547 86.9849 312.203 85.9135 311.491 85.3573C309.078 83.4492 306.705 79.6763 306.27 78.8818C305.598 78.8818 305.321 78.8818 304.174 78.8011V81.1065C304.174 82.1394 304.136 84.4423 304.451 85.0792C304.649 85.4355 305.835 85.7943 306.626 86.0327L306.666 86.6286C305.717 86.4684 304.214 86.3492 303.186 86.3492C302.632 86.3492 300.18 86.5081 299.666 86.5491L299.548 86.0711C299.784 86.0327 301.208 85.7148 301.564 85.0382C301.841 84.4423 301.801 81.1065 301.801 80.0339V76.2201C301.801 71.2939 301.564 71.2145 299.587 71.0953L299.626 70.4199Z" fill="white"/>
<path d="M326.284 70.4205C327.391 70.4602 330.476 70.5409 331.74 70.5409C333.719 70.5409 336.802 70.4987 338.78 70.3807C338.78 70.778 338.78 71.1753 338.661 72.0096C338.62 72.3274 338.384 73.6384 338.384 73.9152L337.751 73.837C337.831 72.2479 337.672 71.2547 334.034 71.2547C333.322 71.2547 331.662 71.4136 330.87 71.5726C330.674 72.7644 330.593 74.4726 330.593 75.4646C330.593 75.7042 330.593 76.6564 330.674 77.7303C331.028 77.7687 333.401 77.8892 335.814 77.5713C336.328 77.4919 336.605 77.2138 336.921 75.981H337.514C337.396 78.2467 337.396 78.7632 337.434 80.8675H336.921C336.486 78.8426 336.17 78.5645 333.045 78.5645C332.61 78.5645 331.621 78.5645 330.554 78.7222L330.593 81.8209C330.634 83.9277 330.712 84.5633 330.791 85.0376C331.582 85.3566 332.176 85.554 333.599 85.554C337.119 85.554 338.503 84.3237 339.175 82.4565L339.689 82.4975C339.333 85.1183 338.819 85.9128 338.503 86.4305C337.514 86.4305 333.164 86.3498 332.254 86.3498C330.751 86.3498 328.142 86.3498 326.006 86.5869L325.928 85.9525C327.034 85.8333 327.747 85.6347 327.864 84.9991C328.062 83.8867 328.22 80.5894 328.22 78.4453C328.22 77.1331 328.22 72.4863 327.905 71.6508C327.787 71.2547 327.628 71.215 326.284 70.9767V70.4205Z" fill="white"/>
<path d="M368.52 70.4202L369.904 70.46C370.497 70.46 371.051 70.5407 372.396 70.5407C373.74 70.5407 374.413 70.4985 375.044 70.46H376.784V71.1353C376.389 71.0956 374.808 70.9764 374.332 71.771C373.978 72.4078 373.938 74.0342 373.938 80.4302C373.938 81.3837 373.938 84.4824 374.096 85.0373C374.332 85.8331 375.044 85.8331 376.627 85.8331L376.667 86.4688C376.073 86.4688 373.502 86.3496 372.988 86.3496H370.695C370.298 86.3496 368.639 86.4303 368.322 86.4303V85.8728C368.836 85.8331 370.735 85.6742 371.129 84.9591C371.605 84.1249 371.565 80.5109 371.565 79.1987C371.565 78.0478 371.526 72.9231 371.209 72.1285C371.012 71.6121 370.615 71.1751 368.52 71.0956V70.4202Z" fill="white"/>
<path d="M398.378 86.5087C397.586 86.5087 396.954 86.469 396.282 86.4305C395.61 86.3895 394.898 86.3498 394.463 86.3498C393.316 86.3498 392.525 86.3895 391.892 86.469C391.299 86.469 390.785 86.5484 390.35 86.5869L390.231 86.032C390.547 85.9922 390.903 85.9525 391.457 85.8731C392.762 85.6347 392.999 85.3566 393.078 84.8799C393.237 83.847 393.276 79.0003 393.276 77.7303C393.276 75.7042 393.237 73.7166 393.078 71.6917C391.971 71.5726 391.061 71.5726 390.825 71.5726C388.016 71.5726 387.424 72.2479 386.91 73.6384L386.396 73.3205C386.436 73.1616 387.502 70.3 387.582 70.1027H388.016C388.136 70.2616 388.333 70.4602 389.163 70.4987C390.073 70.5409 391.18 70.5409 392.643 70.5409H397.231C398.378 70.5409 400.315 70.5409 400.67 70.4987C401.621 70.3807 401.74 70.3 402.056 70.0629L402.451 70.4205C402.095 71.333 401.937 71.9698 401.659 73.4795L401.028 73.5589L401.107 72.2082C400.395 71.7712 399.762 71.5726 397.508 71.5726C396.084 71.5726 395.926 71.5726 395.926 72.0493C395.926 73.2001 395.768 78.207 395.768 79.1989C395.768 80.351 395.768 84.721 396.282 85.3169C396.559 85.5962 397.271 85.7142 397.706 85.7949C398.022 85.8731 398.259 85.914 398.456 85.914L398.378 86.5087Z" fill="white"/>
<path d="M415.147 79.7559C416.611 79.8751 417.441 79.8751 417.481 79.8751C417.876 79.8751 419.26 79.8341 419.616 79.7957L417.362 74.4325C416.809 75.7832 416.729 75.9024 416.333 76.8559L415.147 79.7559ZM415.226 86.5083C414.87 86.4686 414.475 86.4301 414 86.3904C413.566 86.3506 413.092 86.3506 412.616 86.3506C412.141 86.3506 411.668 86.3506 411.271 86.3904C410.837 86.4301 410.441 86.4301 410.125 86.4686L410.165 85.9136C411.469 85.7945 411.943 84.9192 412.814 82.8534L416.531 73.9161C416.927 72.9229 417.64 71.2146 417.837 70.1817H418.429C418.864 71.8502 419.735 73.9955 420.09 74.9105L422.898 81.9012C424.203 85.1179 424.836 85.6753 426.141 85.7535V86.3506C425.469 86.3097 424.362 86.3097 423.136 86.3506C421.91 86.3904 420.605 86.4301 419.498 86.5083L419.537 85.9136C421.396 85.6343 421.396 85.3165 421.396 85.0384C421.396 84.5232 421.041 83.5685 420.921 83.2507L420.051 80.9477C419.22 80.8286 418.35 80.7888 417.441 80.7888C415.939 80.7888 415.306 80.8683 414.712 80.9477C414.158 81.9807 413.328 84.2041 413.328 84.8807C413.328 85.4357 414 85.6343 415.226 85.8739V86.5083Z" fill="white"/>
<path d="M436.662 85.7532C438.954 85.675 438.995 84.9586 438.995 79.9145V76.4173C438.995 71.7308 438.915 71.1361 436.82 71.1361L436.78 70.5402H440.299C441.368 70.5402 442.514 70.5402 443.858 70.4198V71.0554C442.396 71.1758 441.802 71.3335 441.566 72.4074C441.485 72.9623 441.407 73.2416 441.407 77.6104V80.6681C441.407 81.5434 441.407 84.4832 441.724 85.0381C441.922 85.3572 443.108 85.3572 443.7 85.3572C448.367 85.3572 449.198 84.2448 449.711 82.3367L450.305 82.3776C450.305 83.2504 450.146 83.7668 449.276 86.6284C449.079 86.549 448.762 86.508 448.248 86.4298C447.734 86.3901 447.062 86.3491 446.112 86.3491H436.622L436.662 85.7532Z" fill="white"/>
<path d="M459.955 70.4202L461.339 70.46C461.932 70.46 462.486 70.5407 463.831 70.5407C465.175 70.5407 465.848 70.4985 466.479 70.46H468.219V71.1353C467.824 71.0956 466.243 70.9764 465.767 71.771C465.413 72.4078 465.373 74.0342 465.373 80.4302C465.373 81.3837 465.373 84.4824 465.531 85.0373C465.767 85.8331 466.479 85.8331 468.062 85.8331L468.102 86.4688C467.508 86.4688 464.937 86.3496 464.423 86.3496H462.13C461.734 86.3496 460.074 86.4303 459.757 86.4303V85.8728C460.271 85.8331 462.17 85.6742 462.564 84.9591C463.04 84.1249 463 80.5109 463 79.1987C463 78.0478 462.961 72.9231 462.644 72.1285C462.447 71.6121 462.05 71.1751 459.955 71.0956V70.4202Z" fill="white"/>
<path d="M483.287 79.7559C484.752 79.8751 485.581 79.8751 485.622 79.8751C486.016 79.8751 487.4 79.8341 487.756 79.7957L485.502 74.4325C484.949 75.7832 484.869 75.9024 484.473 76.8559L483.287 79.7559ZM483.366 86.5083C483.01 86.4686 482.615 86.4301 482.14 86.3904C481.706 86.3506 481.232 86.3506 480.756 86.3506C480.281 86.3506 479.808 86.3506 479.411 86.3904C478.977 86.4301 478.581 86.4301 478.266 86.4686L478.305 85.9136C479.609 85.7945 480.084 84.9192 480.954 82.8534L484.671 73.9161C485.067 72.9229 485.78 71.2146 485.978 70.1817H486.57C487.005 71.8502 487.875 73.9955 488.231 74.9105L491.039 81.9012C492.344 85.1179 492.976 85.6753 494.281 85.7535V86.3506C493.609 86.3097 492.502 86.3097 491.276 86.3506C490.05 86.3904 488.745 86.4301 487.639 86.5083L487.677 85.9136C489.536 85.6343 489.536 85.3165 489.536 85.0384C489.536 84.5232 489.181 83.5685 489.061 83.2507L488.191 80.9477C487.361 80.8286 486.49 80.7888 485.581 80.7888C484.079 80.7888 483.446 80.8683 482.852 80.9477C482.298 81.9807 481.468 84.2041 481.468 84.8807C481.468 85.4357 482.14 85.6343 483.366 85.8739V86.5083Z" fill="white"/>
<path d="M518.01 80.1932C518.365 80.511 519.789 81.94 520.105 82.2578C520.105 81.5824 520.186 79.3974 520.186 78.6823C520.186 71.2546 519.947 71.0957 517.299 70.9368L517.417 70.3409C517.654 70.2999 518.049 70.2999 518.405 70.2999C518.841 70.2999 519.355 70.3806 520.066 70.4601C520.817 70.5408 521.688 70.5408 523.389 70.5408V71.1354C522.636 71.1354 521.489 71.2149 521.332 72.4862C521.214 73.1615 521.056 78.326 521.056 80.4303C521.056 81.9002 521.056 85.3565 521.134 86.6675L520.383 86.629C519.671 85.1976 518.405 83.7289 514.372 79.9536L512.157 77.889C512.116 77.8096 509.349 75.1479 508.479 74.1944L508.44 75.4644L508.361 82.1796C508.321 84.84 508.321 85.2783 511.445 85.8332V86.5086C511.208 86.4688 510.852 86.4291 510.338 86.4291C509.784 86.3894 509.152 86.3497 508.56 86.3497C507.965 86.3497 507.373 86.3894 506.779 86.4291C506.187 86.4688 505.592 86.5086 505 86.5086V85.9127C505.236 85.8729 505.592 85.7947 505.909 85.714C506.502 85.5961 506.937 85.5154 507.056 84.4825C507.174 83.5688 507.293 80.3906 507.293 79.318L507.332 76.4973C507.411 71.8915 506.937 71.5315 504.644 71.0957L504.604 70.4203C505 70.4203 505.356 70.4601 505.75 70.4986C506.146 70.5408 506.543 70.5408 506.937 70.5408C507.728 70.5408 508.005 70.5408 508.637 70.4986C510.694 73.1218 514.609 76.9343 515.993 78.2466L518.01 80.1932Z" fill="white"/>
<path d="M562.502 70.4203L563.016 70.4986C562.938 70.8164 562.78 71.6506 562.78 72.4464C562.78 72.7642 562.977 74.1547 562.977 74.4315H562.424C562.266 73.7164 562.108 72.9629 561.435 72.3272C561.197 72.0492 560.051 71.056 558.351 71.056C556.373 71.056 555.266 72.2875 555.266 73.8369C555.266 75.5836 556.887 76.2987 558.707 77.015C560.763 77.8481 563.728 79.0399 563.728 82.1386C563.728 84.4428 561.594 86.6675 557.914 86.6675C556.728 86.6675 555.78 86.4304 555.345 86.3099C555.187 86.2702 554.475 86.0703 554.238 86.0703C554 86.0703 553.842 86.3497 553.763 86.5483L553.208 86.5086C553.249 84.4428 553.051 83.6085 552.537 81.8617H553.208C553.328 82.4167 553.605 83.4893 554.475 84.2454C555.187 84.84 556.887 85.6346 558.666 85.6346C560.763 85.6346 561.594 84.1647 561.594 83.0138C561.594 80.8673 560.209 80.3124 557.242 79.0808C555.543 78.3645 553.289 77.4508 553.289 74.7494C553.289 72.2081 555.423 70.2614 558.785 70.2614C559.813 70.2614 560.525 70.3806 561.988 70.7779L562.502 70.4203Z" fill="white"/>
<path d="M585.005 86.5087C584.214 86.5087 583.581 86.469 582.909 86.4305C582.236 86.3895 581.525 86.3498 581.09 86.3498C579.943 86.3498 579.153 86.3895 578.519 86.469C577.926 86.469 577.412 86.5484 576.977 86.5869L576.858 86.032C577.174 85.9922 577.53 85.9525 578.084 85.8731C579.389 85.6347 579.626 85.3566 579.705 84.8799C579.864 83.847 579.903 79.0003 579.903 77.7303C579.903 75.7042 579.864 73.7166 579.705 71.6917C578.598 71.5726 577.688 71.5726 577.452 71.5726C574.643 71.5726 574.051 72.2479 573.537 73.6384L573.023 73.3205C573.062 73.1616 574.129 70.3 574.209 70.1027H574.643C574.763 70.2616 574.96 70.4602 575.79 70.4987C576.7 70.5409 577.807 70.5409 579.27 70.5409H583.858C585.005 70.5409 586.942 70.5409 587.297 70.4987C588.248 70.3807 588.366 70.3 588.683 70.0629L589.078 70.4205C588.722 71.333 588.564 71.9698 588.286 73.4795L587.655 73.5589L587.734 72.2082C587.022 71.7712 586.389 71.5726 584.135 71.5726C582.711 71.5726 582.553 71.5726 582.553 72.0493C582.553 73.2001 582.395 78.207 582.395 79.1989C582.395 80.351 582.395 84.721 582.909 85.3169C583.186 85.5962 583.898 85.7142 584.333 85.7949C584.649 85.8731 584.886 85.914 585.083 85.914L585.005 86.5087Z" fill="white"/>
<path d="M599.717 70.4205C600.825 70.4602 603.909 70.5409 605.174 70.5409C607.151 70.5409 610.236 70.4987 612.212 70.3807C612.212 70.778 612.212 71.1753 612.095 72.0096C612.054 72.3274 611.818 73.6384 611.818 73.9152L611.185 73.837C611.264 72.2479 611.106 71.2547 607.468 71.2547C606.756 71.2547 605.096 71.4136 604.304 71.5726C604.107 72.7644 604.027 74.4726 604.027 75.4646C604.027 75.7042 604.027 76.6564 604.107 77.7303C604.462 77.7687 606.835 77.8892 609.247 77.5713C609.761 77.4919 610.038 77.2138 610.355 75.981H610.948C610.829 78.2467 610.829 78.7632 610.867 80.8675H610.355C609.92 78.8426 609.603 78.5645 606.479 78.5645C606.044 78.5645 605.055 78.5645 603.987 78.7222L604.027 81.8209C604.068 83.9277 604.145 84.5633 604.225 85.0376C605.016 85.3566 605.61 85.554 607.032 85.554C610.552 85.554 611.936 84.3237 612.609 82.4565L613.123 82.4975C612.767 85.1183 612.253 85.9128 611.936 86.4305C610.948 86.4305 606.597 86.3498 605.688 86.3498C604.185 86.3498 601.576 86.3498 599.439 86.5869L599.361 85.9525C600.467 85.8333 601.181 85.6347 601.298 84.9991C601.496 83.8867 601.654 80.5894 601.654 78.4453C601.654 77.1331 601.654 72.4863 601.339 71.6508C601.22 71.2547 601.062 71.215 599.717 70.9767V70.4205Z" fill="white"/>
<path d="M628.587 79.7559C630.051 79.8751 630.881 79.8751 630.921 79.8751C631.316 79.8751 632.7 79.8341 633.056 79.7957L630.802 74.4325C630.249 75.7832 630.169 75.9024 629.773 76.8559L628.587 79.7559ZM628.666 86.5083C628.31 86.4686 627.915 86.4301 627.44 86.3904C627.006 86.3506 626.532 86.3506 626.056 86.3506C625.581 86.3506 625.108 86.3506 624.711 86.3904C624.277 86.4301 623.881 86.4301 623.565 86.4686L623.605 85.9136C624.909 85.7945 625.383 84.9192 626.253 82.8534L629.971 73.9161C630.367 72.9229 631.08 71.2146 631.277 70.1817H631.869C632.304 71.8502 633.174 73.9955 633.53 74.9105L636.338 81.9012C637.643 85.1179 638.276 85.6753 639.581 85.7535V86.3506C638.909 86.3097 637.802 86.3097 636.576 86.3506C635.35 86.3904 634.045 86.4301 632.938 86.5083L632.977 85.9136C634.835 85.6343 634.835 85.3165 634.835 85.0384C634.835 84.5232 634.481 83.5685 634.361 83.2507L633.491 80.9477C632.66 80.8286 631.791 80.7888 630.881 80.7888C629.379 80.7888 628.746 80.8683 628.152 80.9477C627.598 81.9807 626.768 84.2041 626.768 84.8807C626.768 85.4357 627.44 85.6343 628.666 85.8739V86.5083Z" fill="white"/>
<path d="M652.869 76.2989C652.869 71.2946 652.791 71.2946 650.892 71.055L650.933 70.4206C651.644 70.4988 652.909 70.5397 653.977 70.5397C655.4 70.5397 656.587 70.4603 657.338 70.3796L657.299 70.937C656.626 71.055 655.677 71.2139 655.479 71.8905C655.204 72.6043 655.123 74.1946 655.084 78.1661C657.101 76.2604 657.577 75.8222 659.355 73.8768C660.619 72.4864 660.779 72.1288 660.779 71.7713C660.779 71.2548 660.225 71.1356 659.316 71.0152L659.355 70.4603C660.739 70.4988 661.728 70.5397 662.44 70.5397C663.468 70.5397 663.864 70.4988 665.207 70.4603L665.169 71.055C663.982 71.2139 663.429 71.4125 662.4 72.2468C661.214 73.2412 659.672 74.9482 656.943 77.6894L663.31 83.4113C665.327 85.2363 666.038 85.7142 666.988 86.0321V86.5088C665.92 86.3499 663.626 86.2692 663.547 86.2692C663.112 86.2692 661.926 86.3089 660.502 86.4678L660.463 85.9514C661.134 85.8732 661.847 85.7527 661.847 85.3964C661.847 85.1183 660.304 83.6869 659.79 83.2114C658.287 81.8198 656.349 80.073 655.123 79.1183C655.163 85.3567 655.163 85.5951 657.457 85.9514L657.496 86.4678C657.259 86.4678 656.548 86.4293 655.876 86.3896C655.163 86.3896 654.491 86.3499 654.253 86.3499H650.656V85.8334C652.751 85.7142 652.869 85.5541 652.869 80.9073V76.2989Z" fill="white"/>
<path d="M679.485 76.9754C679.565 71.2547 679.249 71.1355 677.35 71.0957L677.31 70.4204C677.627 70.3807 678.063 70.3409 678.497 70.3409C678.933 70.3409 679.565 70.3807 680.316 70.4204C681.067 70.4986 681.622 70.5396 682.096 70.5396C682.768 70.5396 683.519 70.5396 684.35 70.4601L684.389 71.1752C682.136 71.2547 682.096 71.5315 681.977 75.1467L681.898 77.7687L687.038 77.7289C687.908 77.7289 690.755 77.7289 691.428 77.6495V75.6246C691.428 74.7891 691.428 72.3273 691.034 71.7301C690.795 71.3738 690.637 71.3329 689.214 71.015V70.4204H690.123C690.48 70.4204 690.915 70.4204 691.39 70.4601C691.864 70.4986 692.26 70.5396 692.932 70.5396C693.88 70.5396 695.107 70.4204 695.699 70.3807L695.739 71.0957C694.435 71.2547 694.157 71.493 694.079 72.1671C693.959 73.1616 693.921 74.8686 693.921 76.5781L693.88 81.2646C693.84 85.0375 693.88 85.5949 695.857 85.9127V86.5483C694.869 86.4676 694.237 86.4292 693.723 86.3894C693.248 86.3497 692.892 86.3497 692.418 86.3497C691.151 86.3497 690.755 86.4292 689.333 86.5483V85.7948C691.111 85.6346 691.428 85.5539 691.428 81.5825V79.0002C690.243 78.9207 683.519 78.9617 681.937 79.0796V81.7414C681.937 84.3633 681.937 85.1976 682.57 85.5154C682.926 85.7141 683.638 85.7526 684.231 85.7526L684.152 86.5483C683.361 86.4292 682.689 86.3894 682.096 86.3894C681.464 86.3497 680.95 86.3497 680.474 86.3497C679.288 86.3497 678.457 86.4292 677.232 86.5483V85.9127C678.577 85.6346 679.011 85.5539 679.209 84.8798C679.446 84.0455 679.446 80.9853 679.446 80.1126L679.485 76.9754Z" fill="white"/>
<path d="M716.423 85.6741C719.388 85.6741 721.247 82.7343 721.247 79.9137C721.247 75.4258 718.676 71.2147 714.841 71.2147C711.796 71.2147 709.937 73.9149 709.937 77.0546C709.937 81.185 712.31 85.6741 716.423 85.6741ZM715.593 70.1818C720.655 70.1818 723.778 74.2327 723.778 78.3643C723.778 82.933 719.824 86.707 715.355 86.707C710.728 86.707 707.406 82.933 707.406 78.3643C707.406 73.9956 711.242 70.1818 715.593 70.1818Z" fill="white"/>
<path d="M739.717 80.1131C739.717 81.8611 739.717 85.634 744.303 85.634C749.247 85.634 749.682 82.3366 749.682 76.8555V75.4266C749.682 75.3459 749.682 72.2472 749.011 71.5718C748.614 71.1758 747.784 71.1361 746.994 71.1361V70.4607C747.625 70.4607 748.298 70.5401 749.919 70.5401C751.895 70.5401 752.253 70.4992 752.885 70.4607L752.846 71.0951C750.829 71.2143 750.868 71.8114 750.829 73.043L750.789 75.3844C750.671 83.4899 750.157 86.7476 743.631 86.7476C739.281 86.7476 737.186 84.7997 737.186 81.3049C737.186 80.4694 737.382 76.8158 737.382 76.0212C737.382 75.187 737.344 71.7307 736.79 71.3744C736.514 71.1758 736.158 71.1758 735.09 71.1758L735.05 70.5401C735.365 70.4992 737.542 70.4607 738.61 70.4607C739.124 70.4607 741.614 70.38 742.484 70.4197V71.0951C739.914 71.3334 739.717 71.5321 739.717 77.0939V80.1131Z" fill="white"/>
<path d="M773.372 70.4203L773.886 70.4986C773.808 70.8164 773.65 71.6506 773.65 72.4464C773.65 72.7642 773.846 74.1547 773.846 74.4315H773.294C773.136 73.7164 772.977 72.9629 772.305 72.3272C772.067 72.0492 770.921 71.056 769.22 71.056C767.243 71.056 766.136 72.2875 766.136 73.8369C766.136 75.5836 767.757 76.2987 769.576 77.015C771.633 77.8481 774.598 79.0399 774.598 82.1386C774.598 84.4428 772.463 86.6675 768.784 86.6675C767.598 86.6675 766.65 86.4304 766.215 86.3099C766.056 86.2702 765.345 86.0703 765.107 86.0703C764.87 86.0703 764.712 86.3497 764.633 86.5483L764.078 86.5086C764.119 84.4428 763.921 83.6085 763.407 81.8617H764.078C764.198 82.4167 764.475 83.4893 765.345 84.2454C766.056 84.84 767.757 85.6346 769.535 85.6346C771.633 85.6346 772.463 84.1647 772.463 83.0138C772.463 80.8673 771.079 80.3124 768.112 79.0808C766.411 78.3645 764.158 77.4508 764.158 74.7494C764.158 72.2081 766.293 70.2614 769.654 70.2614C770.682 70.2614 771.394 70.3806 772.858 70.7779L773.372 70.4203Z" fill="white"/>
<path d="M786.187 70.4205C787.294 70.4602 790.379 70.5409 791.643 70.5409C793.621 70.5409 796.706 70.4987 798.682 70.3807C798.682 70.778 798.682 71.1753 798.564 72.0096C798.524 72.3274 798.288 73.6384 798.288 73.9152L797.655 73.837C797.734 72.2479 797.576 71.2547 793.937 71.2547C793.225 71.2547 791.566 71.4136 790.773 71.5726C790.577 72.7644 790.497 74.4726 790.497 75.4646C790.497 75.7042 790.497 76.6564 790.577 77.7303C790.932 77.7687 793.304 77.8892 795.717 77.5713C796.231 77.4919 796.508 77.2138 796.824 75.981H797.417C797.299 78.2467 797.299 78.7632 797.337 80.8675H796.824C796.389 78.8426 796.073 78.5645 792.949 78.5645C792.513 78.5645 791.525 78.5645 790.457 78.7222L790.497 81.8209C790.537 83.9277 790.615 84.5633 790.694 85.0376C791.485 85.3566 792.08 85.554 793.502 85.554C797.022 85.554 798.406 84.3237 799.079 82.4565L799.593 82.4975C799.237 85.1183 798.723 85.9128 798.406 86.4305C797.417 86.4305 793.067 86.3498 792.158 86.3498C790.655 86.3498 788.046 86.3498 785.909 86.5869L785.831 85.9525C786.937 85.8333 787.65 85.6347 787.768 84.9991C787.965 83.8867 788.124 80.5894 788.124 78.4453C788.124 77.1331 788.124 72.4863 787.808 71.6508C787.69 71.2547 787.532 71.215 786.187 70.9767V70.4205Z" fill="white"/>
</g>
<defs>
<clipPath id="clip0_46_2">
<rect width="800" height="87" fill="white"/>
</clipPath>
</defs>
</svg>
