<svg width="800" height="272" viewBox="0 0 800 272" fill="none" xmlns="http://www.w3.org/2000/svg">
<g clip-path="url(#clip0_44_2)">
<path d="M554.011 53.6022C553.999 53.5825 553.763 53.294 553.763 53.294C548.462 63.7159 541.327 72.8336 534.17 81.961C522.464 96.8937 513.987 113.457 510.607 132.388C509.821 136.793 509.504 141.353 509.582 145.83C509.671 150.958 511.585 152.581 516.442 152.519C518.639 152.491 520.831 152.146 523.124 151.935C519.973 156.644 519.625 157.313 516.391 157.516C513.539 157.694 510.221 157.697 507.878 156.374C506.003 155.316 504.581 152.276 504.174 149.902C502.763 141.662 503.342 133.384 505.416 125.294C506.624 120.578 508.334 115.994 509.745 111.327C510.148 109.993 510.299 108.579 510.587 107.08C506.648 106.234 504.752 108.961 502.307 110.314C491.906 116.066 481.622 122.053 471.062 127.49C467.526 129.31 463.348 130.095 459.368 130.708C455.563 131.293 453.868 129.231 453.413 124.537C453.312 123.488 453.398 122.421 453.398 120.79C448.595 121.399 445.107 124.033 441.701 126.785C439.092 128.89 436.663 131.238 433.988 133.247C425.772 139.418 421.889 138.587 415.956 129.094C413.39 129.957 410.611 130.722 407.96 131.81C396.275 136.608 384.434 140.875 372.086 143.622C368.858 144.34 365.786 145.75 362.581 146.609C360.345 147.208 357.948 146.96 356.513 144.933C354.697 142.367 353.823 139.538 356.741 137.048C357.186 136.939 357.623 136.673 357.897 136.791C367.031 140.737 373.68 136.399 379.256 129.756C382.343 126.076 384.882 121.843 387.187 117.59C389.147 113.978 387.843 111.254 384.16 109.327C379.583 106.933 374.754 106.502 370.244 108.784C365.995 110.935 362.179 113.974 358.2 116.662C356.801 117.608 355.484 118.676 353.052 120.493C353.271 117.629 353.38 116.213 353.488 114.795L353.332 115.168C356.44 112.515 359.34 109.546 362.698 107.275C370.184 102.214 378.193 100.153 386.801 104.527C393.867 108.117 395.758 112.993 392.504 120.241C391.139 123.283 388.991 125.958 387.279 128.847C386.541 130.095 386.004 131.466 384.899 133.78C387.51 133.405 389.344 133.478 390.915 132.861C398.508 129.883 406.031 126.722 413.578 123.623C417.836 121.875 420.943 118.801 423.744 115.161C425.512 112.864 427.807 110.881 430.184 109.233C431.077 108.614 433.271 108.864 434.129 109.604C434.776 110.163 434.785 112.57 434.137 113.394C431.842 116.319 429.058 118.842 426.622 121.661C424.262 124.393 423.281 127.449 425.603 131.155C429.851 130.796 432.849 128.094 436.07 125.595C439.879 122.638 443.853 119.838 448.01 117.421C451.568 115.352 455.489 113.963 459.891 116.749C460.211 119.02 460.562 121.515 460.884 123.799C461.993 124.186 462.738 124.737 463.326 124.599C465.48 124.094 467.685 123.593 469.685 122.672C484.893 115.666 499.585 107.66 512.957 97.4768C516.687 94.6365 519.833 90.5769 522.254 86.4742C530.814 71.9682 538.654 57.0195 547.334 42.5898C553.689 32.0249 560.737 21.8668 567.885 11.8271C570.666 7.92166 574.475 4.7337 578 1.42247C579.72 -0.192474 581.876 -0.818726 584.37 1.64191C582.83 7.19557 579.669 11.9886 575.472 16.1529L554.011 53.6022Z" fill="white"/>
<path d="M267.137 101.471C262.865 99.5899 259.215 100.604 255.602 101.154C247.178 102.434 238.749 103.695 230.357 105.174C219.342 107.117 208.238 107.582 197.095 107.825C192.28 107.931 187.483 108.695 182.666 108.936C179.732 109.081 176.757 108.961 173.844 108.603C173.043 108.504 171.944 107.18 171.817 106.295C171.705 105.518 172.611 103.997 173.332 103.8C175.795 103.127 178.379 102.509 180.906 102.551C211.524 103.065 241.469 97.3537 271.171 92.9502C275.096 90.0741 275.813 85.7668 277.763 82.2004C278.632 80.6125 279.929 79.259 281.099 77.8561C281.268 77.6539 281.91 77.612 282.157 77.7735C282.723 78.1433 283.508 78.6204 283.611 79.169C283.813 80.2304 283.797 81.4213 283.53 82.4691C282.897 84.9507 282.066 87.3793 281.142 90.3922C283.202 90.5044 284.676 90.8557 286.05 90.6178C309.132 86.6149 331.859 81.1574 353.759 72.6254C358.563 70.754 363.004 67.8965 367.548 65.373C368.829 64.6629 369.956 63.6076 371.026 62.5758C373.655 60.0387 373.355 56.9938 370.343 55.0731C366.162 52.4054 361.545 50.8521 356.66 50.8102C346.652 50.7263 336.508 49.9793 326.656 51.3094C304.964 54.2361 283.441 58.388 263.03 66.9139C261.345 67.6166 259.807 68.6904 258.241 69.6581C258.04 69.7826 258.079 70.3102 257.844 71.4395C260.229 73.0285 262.86 74.7803 265.396 76.4692C265.134 78.7276 263.631 79.1924 262.184 78.825C259.329 78.0989 256.415 77.3099 253.797 75.9933C248.915 73.5389 248.602 69.3696 253.117 66.6242C256.59 64.5125 260.314 62.7324 264.098 61.258C281.159 54.6108 299.084 51.4401 316.925 47.9094C329.4 45.4414 341.966 45.0778 354.607 45.4809C361.059 45.6867 367.089 47.4533 372.703 50.5118C380.217 54.6071 381.11 61.3011 374.307 66.6859C369.409 70.563 363.794 73.852 358.02 76.182C338.676 83.9879 318.669 89.6537 298.217 93.6541C293.483 94.5799 288.764 95.6623 283.989 96.2688C279.195 96.8778 276.146 99.0364 273.516 103.396C264.996 117.517 255.954 131.318 246.935 145.124C245.576 147.203 243.378 148.796 241.334 150.284C240.811 150.666 239.295 149.961 238.436 149.425C237.971 149.134 237.536 147.937 237.76 147.507C239.123 144.875 240.52 142.232 242.198 139.801C249.432 129.316 256.83 118.947 264.011 108.426C265.398 106.391 266.085 103.864 267.137 101.471Z" fill="white"/>
<path d="M353.488 114.795C347.569 131.033 342.191 147.5 335.585 163.445C328.542 180.439 320.742 197.144 312.534 213.596C303.653 231.397 293.92 248.761 284.56 266.317C284.383 266.647 284.278 267.023 284.074 267.331C282.671 269.445 281.82 272.328 278.497 271.97C276.392 271.743 276.16 268.356 278.373 264.182C288.043 245.944 297.909 227.812 307.535 209.55C312.608 199.923 317.719 190.284 322.134 180.339C330.663 161.126 339.41 141.97 344.667 121.451C345.973 116.353 347.382 111.308 345.22 105.595C338.364 106.28 331.879 106.817 327.363 112.264C327.273 113.457 326.988 114.271 327.198 114.918C330.681 125.668 330.159 127.183 320.713 133.127C315.654 136.309 310.658 139.575 304.323 139.477C297.611 139.375 294.131 134.475 296.561 128.038C298.636 122.542 302.386 118.785 309.258 116.813C308.097 121.582 304.716 123.73 303.282 126.935C302.575 128.514 301.919 130.876 302.601 132.11C303.228 133.246 305.809 134.059 307.302 133.777C313.99 132.512 319.981 129.798 324.165 123.406C323.305 120.96 322.341 118.571 321.628 116.106C320.694 112.874 321.644 110.204 324.347 108.172C330.177 103.793 337.023 101.991 343.903 100.432C347.4 99.639 350.707 101.788 351.63 105.31C352.477 108.541 352.766 111.922 353.316 115.203C353.332 115.168 353.488 114.795 353.488 114.795Z" fill="white"/>
<path d="M541.034 119.348C539.987 122.745 542.658 122.907 544.152 122.971C546.42 123.068 554.595 119.378 556.095 117.722C559.101 116.127 555.567 112.764 549.512 115.487C545.521 116.676 544.909 118.194 541.034 119.348ZM564.041 112.985C565.209 119.59 559.821 125.25 565.97 130.946C570.277 132.368 575.243 130.633 580.095 129.402C596.221 125.31 612.285 120.961 628.678 116.629C631.784 108.123 631.126 99.3305 632.635 90.9328C633.782 84.5532 634.207 78.0342 635.481 71.6854C636.834 64.9471 639.55 62.86 646.167 63.0067C650.423 63.1004 654.672 63.7131 658.911 64.2C678.837 66.4831 689.645 68.5196 709.522 71.18C734.89 74.5763 714.478 72.0873 739.764 76.0618C757.051 78.7788 774.247 82.1061 791.446 85.3643C794.231 85.8932 796.862 87.3996 799.46 88.6731C799.911 88.8938 800.112 90.2732 799.938 90.9969C799.767 91.7168 799.02 92.777 798.45 92.8288C796.37 93.0149 794.188 93.1863 792.17 92.7536C753.744 84.5051 760.651 84.9082 721.78 79.4593C698.129 76.1431 683.472 73.9759 659.741 71.2453C656.35 70.8545 653.004 70.0668 649.613 69.6871C644.797 69.1459 642.466 70.4798 641.047 75.4158C639.499 80.8043 638.477 86.3629 637.46 91.8906C636.915 94.8579 636.902 97.9239 636.586 100.938C635.513 111.177 635.502 111.176 640.411 121.077C638.685 123.614 636.972 126.611 634.757 129.157C633.847 130.203 631.571 131.025 630.434 130.583C629.311 130.145 628.799 128.002 628.104 126.566C627.737 125.807 627.552 124.956 627.181 123.833C621.16 123.413 615.567 125.719 609.85 127.298C599.974 130.028 590.109 132.797 580.227 135.501C578.583 135.951 576.881 136.188 575.2 136.491C561.305 138.988 559.634 137.92 555.008 122.969C551.945 124.044 548.926 125.22 545.837 126.156C542.175 127.264 538.49 128.452 534.731 128.991C533.526 129.164 531.464 127.672 530.86 126.415C530.265 125.171 530.411 122.721 531.271 121.731C537.502 114.564 545.345 110.619 554.917 111.128C557.832 111.283 560.703 112.28 564.041 112.985Z" fill="white"/>
<path d="M92.6612 119.659C93.1756 122.72 93.8762 124.94 93.8589 127.154C93.8046 133.668 97.8811 136.717 103.139 138.252C106.63 139.271 110.44 139.328 114.12 139.477C118.889 139.669 123.672 139.524 128.549 139.524C128.236 140.447 128.204 141.413 127.794 141.622C121.296 144.954 114.22 145.505 107.214 144.898C96.4688 143.963 91.318 139.678 86.2758 128.63C81.5542 129.876 77.9711 133.194 74.0168 135.828C70.3079 138.3 66.7038 141.011 62.7519 142.995C61.0374 143.856 58.3042 143.756 56.5268 142.96C55.3649 142.439 55.0874 139.884 54.1216 137.531C52.2345 138.249 50.2881 139.051 48.3035 139.74C39.1848 142.904 30.0932 146.156 20.9079 149.11C18.129 150.004 15.0701 150.456 12.1555 150.386C2.52248 150.153 -2.58514 142.137 1.31742 133.116C2.93321 129.382 5.27548 125.802 7.93968 122.736C15.7991 113.695 23.7275 104.687 32.0963 96.1376C47.8028 80.0893 72.9153 55.0134 88.9363 39.2881C92.8314 35.4628 96.2986 30.7733 103.054 29.2052C102.954 31.0174 103.346 32.6372 102.722 33.4842C101.182 35.5749 99.2576 37.4044 97.3372 39.1685C92.6711 43.4536 87.6646 47.3886 83.244 51.9166C65.4654 70.1211 38.6421 97.7168 21.0868 116.144C16.9721 120.463 13.3853 125.315 9.74172 130.07C8.39605 131.824 7.40191 133.926 6.57428 136.004C4.88079 140.251 6.95541 143.767 11.566 143.67C16.3307 143.569 21.3717 143.371 25.7787 141.766C40.4281 136.432 54.9912 130.787 69.3026 124.583C77.7984 120.899 85.7442 115.916 93.9637 111.568C97.2409 109.835 100.514 108.044 103.954 106.716C104.819 106.383 106.524 107.524 107.418 108.422C107.76 108.765 107.219 110.745 106.546 111.26C104.193 113.065 101.638 114.612 99.0972 116.149C97.1978 117.299 95.1996 118.284 92.6612 119.659Z" fill="white"/>
<path d="M60.1096 198.036C60.6573 198.544 60.6573 199.247 60.1873 199.794L57.8426 202.53C57.4134 203.076 56.4353 202.998 55.9271 202.569C54.2077 201.005 52.0578 200.067 50.0646 200.067C45.7254 200.067 42.442 203.505 42.442 207.999C42.442 212.569 45.7254 216.045 50.0646 216.045C51.9789 216.045 54.0893 215.187 55.8876 213.819C56.3958 213.389 57.4134 213.352 57.8821 213.819L60.1096 216.203C60.6573 216.749 60.6955 217.491 60.0702 217.999C57.2172 220.538 53.348 222.14 49.7131 222.14C41.4652 222.14 35.3276 216.086 35.3276 208.077C35.3276 200.186 41.6218 194.247 49.9474 194.247C53.6218 194.247 57.3739 195.693 60.1096 198.036Z" fill="white"/>
<path d="M85.3222 208.155C85.3222 212.765 88.8794 216.319 93.0607 216.319C97.2827 216.319 100.644 212.765 100.644 208.155C100.644 203.544 97.2827 200.068 93.0607 200.068C88.8399 200.068 85.3222 203.544 85.3222 208.155ZM107.798 208.117C107.798 216.085 101.465 222.141 92.983 222.141C84.5402 222.141 78.209 216.123 78.209 208.117C78.209 200.145 84.5402 194.248 92.983 194.248C101.465 194.248 107.798 200.186 107.798 208.117Z" fill="white"/>
<path d="M150.997 198.036C151.545 198.544 151.545 199.247 151.075 199.794L148.73 202.53C148.301 203.076 147.323 202.998 146.815 202.569C145.095 201.005 142.945 200.067 140.952 200.067C136.613 200.067 133.329 203.505 133.329 207.999C133.329 212.569 136.613 216.045 140.952 216.045C142.866 216.045 144.978 215.187 146.775 213.819C147.283 213.389 148.301 213.352 148.769 213.819L150.997 216.203C151.545 216.749 151.583 217.491 150.958 217.999C148.105 220.538 144.234 222.14 140.599 222.14C132.353 222.14 126.216 216.086 126.216 208.077C126.216 200.186 132.509 194.247 140.835 194.247C144.509 194.247 148.261 195.693 150.997 198.036Z" fill="white"/>
<path d="M176.909 221.828H172.688C171.944 221.828 171.319 221.204 171.319 220.46V195.85C171.319 195.108 171.944 194.481 172.688 194.481H176.909C177.651 194.481 178.278 195.108 178.278 195.85V220.46C178.278 221.204 177.651 221.828 176.909 221.828Z" fill="white"/>
<path d="M224.056 221.828H219.99C219.678 221.828 219.053 221.516 218.895 221.282L209.163 208.273C208.342 207.216 206.7 207.765 206.7 209.092V220.46C206.7 221.204 206.075 221.828 205.332 221.828H201.542C200.798 221.828 200.173 221.204 200.173 220.46V195.85C200.173 195.108 200.798 194.481 201.542 194.481H205.606C205.919 194.481 206.545 194.793 206.7 195.029L216.473 208.076C217.293 209.171 218.934 208.623 218.934 207.257V195.85C218.934 195.108 219.56 194.481 220.304 194.481H224.056C224.798 194.481 225.424 195.108 225.424 195.85V220.46C225.424 221.204 224.798 221.828 224.056 221.828Z" fill="white"/>
<path d="M262.201 209.639L260.247 204.678C259.777 203.428 258.175 203.428 257.706 204.678L255.751 209.639C255.36 210.617 255.986 211.515 257.002 211.515H260.911C261.927 211.515 262.554 210.617 262.201 209.639ZM263.999 216.788H253.915C253.445 216.788 252.82 217.218 252.625 217.648L251.335 220.968C251.14 221.398 250.513 221.829 250.046 221.829H245.901C244.846 221.829 244.22 220.89 244.651 219.914L255.283 195.302C255.478 194.871 256.065 194.481 256.533 194.481H261.889C262.358 194.481 262.944 194.911 263.14 195.302L273.536 219.914C273.927 220.89 273.302 221.829 272.246 221.829H267.829C267.36 221.829 266.735 221.398 266.54 220.968L265.29 217.648C265.093 217.218 264.468 216.788 263.999 216.788Z" fill="white"/>
<path d="M371.849 221.828H368.448C367.706 221.828 367.08 221.204 367.08 220.46L367.042 210.577C367.042 209.131 365.008 208.703 364.422 210.03L360.826 218.274C360.67 218.703 360.045 219.094 359.575 219.094H356.839C356.371 219.094 355.745 218.703 355.589 218.274L351.992 210.069C351.406 208.741 349.375 209.171 349.375 210.617V220.46C349.375 221.204 348.748 221.828 348.006 221.828H344.527C343.785 221.828 343.158 221.204 343.158 220.46V195.809C343.158 195.067 343.785 194.443 344.527 194.443H349.883C350.352 194.443 350.976 194.833 351.134 195.224L356.958 207.999C357.466 209.131 358.951 209.131 359.459 207.999L365.282 195.224C365.439 194.833 366.065 194.443 366.533 194.443H371.849C372.591 194.443 373.218 195.067 373.218 195.809V220.46C373.218 221.204 372.591 221.828 371.849 221.828Z" fill="white"/>
<path d="M415.259 199.95H403.531C402.789 199.95 402.165 200.576 402.165 201.318V204.014C402.165 204.757 402.789 205.38 403.531 205.38H413.851C414.594 205.38 415.219 206.007 415.219 206.749V209.483C415.219 210.225 414.594 210.851 413.851 210.851H403.531C402.789 210.851 402.165 211.475 402.165 212.217V214.991C402.165 215.733 402.789 216.36 403.531 216.36H415.689C416.432 216.36 417.056 216.983 417.056 217.725V220.46C417.056 221.204 416.432 221.828 415.689 221.828H396.575C395.832 221.828 395.206 221.204 395.206 220.46V195.85C395.206 195.108 395.832 194.481 396.575 194.481H415.259C416.001 194.481 416.625 195.108 416.625 195.85V198.584C416.625 199.326 416.001 199.95 415.259 199.95Z" fill="white"/>
<path d="M453.836 208.311L461.615 219.679C462.319 220.656 461.692 221.828 460.519 221.828H455.517C455.164 221.828 454.54 221.516 454.383 221.243L450.004 214.795C449.419 213.937 448.325 213.937 447.737 214.795L443.361 221.243C443.205 221.516 442.578 221.828 442.228 221.828H437.498C436.325 221.828 435.7 220.656 436.364 219.679L444.104 208.623C444.378 208.233 444.378 207.45 444.104 207.061L436.951 196.629C436.286 195.654 436.91 194.481 438.083 194.481H442.852C443.205 194.481 443.829 194.793 443.985 195.108L447.737 200.732C448.325 201.592 449.419 201.592 450.004 200.732L453.758 195.108C453.913 194.793 454.54 194.481 454.893 194.481H459.699C460.91 194.481 461.496 195.654 460.831 196.629L453.836 206.749C453.563 207.138 453.563 207.921 453.836 208.311Z" fill="white"/>
<path d="M487.144 221.828H482.923C482.18 221.828 481.554 221.204 481.554 220.46V195.85C481.554 195.108 482.18 194.481 482.923 194.481H487.144C487.886 194.481 488.513 195.108 488.513 195.85V220.46C488.513 221.204 487.886 221.828 487.144 221.828Z" fill="white"/>
<path d="M533.432 198.036C533.978 198.544 533.978 199.247 533.51 199.794L531.165 202.53C530.734 203.076 529.758 202.998 529.249 202.569C527.529 201.005 525.379 200.067 523.386 200.067C519.046 200.067 515.763 203.505 515.763 207.999C515.763 212.569 519.046 216.045 523.386 216.045C525.301 216.045 527.412 215.187 529.21 213.819C529.718 213.389 530.734 213.352 531.203 213.819L533.432 216.203C533.978 216.749 534.018 217.491 533.392 217.999C530.538 220.538 526.669 222.14 523.033 222.14C514.786 222.14 508.65 216.086 508.65 208.077C508.65 200.186 514.943 194.247 523.267 194.247C526.942 194.247 530.695 195.693 533.432 198.036Z" fill="white"/>
<path d="M569.24 209.639L567.285 204.678C566.816 203.428 565.214 203.428 564.746 204.678L562.791 209.639C562.4 210.617 563.026 211.515 564.041 211.515H567.951C568.966 211.515 569.593 210.617 569.24 209.639ZM571.037 216.788H560.953C560.484 216.788 559.86 217.218 559.664 217.648L558.374 220.968C558.179 221.398 557.552 221.829 557.085 221.829H552.942C551.885 221.829 551.26 220.89 551.69 219.914L562.322 195.302C562.518 194.871 563.104 194.481 563.573 194.481H568.928C569.397 194.481 569.983 194.911 570.179 195.302L580.575 219.914C580.966 220.89 580.341 221.829 579.286 221.829H574.869C574.4 221.829 573.775 221.398 573.579 220.968L572.329 217.648C572.133 217.218 571.507 216.788 571.037 216.788Z" fill="white"/>
<path d="M623.645 221.828H619.581C619.266 221.828 618.642 221.516 618.486 221.282L608.751 208.273C607.931 207.216 606.289 207.765 606.289 209.092V220.46C606.289 221.204 605.664 221.828 604.922 221.828H601.131C600.389 221.828 599.762 221.204 599.762 220.46V195.85C599.762 195.108 600.389 194.481 601.131 194.481H605.195C605.508 194.481 606.134 194.793 606.289 195.029L616.062 208.076C616.882 209.171 618.524 208.623 618.524 207.257V195.85C618.524 195.108 619.15 194.481 619.893 194.481H623.645C624.388 194.481 625.012 195.108 625.012 195.85V220.46C625.012 221.204 624.388 221.828 623.645 221.828Z" fill="white"/>
<path d="M661.792 209.639L659.837 204.678C659.368 203.428 657.766 203.428 657.297 204.678L655.342 209.639C654.951 210.617 655.578 211.515 656.593 211.515H660.503C661.518 211.515 662.145 210.617 661.792 209.639ZM663.589 216.788H653.504C653.036 216.788 652.412 217.218 652.216 217.648L650.925 220.968C650.731 221.398 650.104 221.829 649.636 221.829H645.493C644.436 221.829 643.812 220.89 644.241 219.914L654.874 195.302C655.07 194.871 655.656 194.481 656.124 194.481H661.48C661.949 194.481 662.534 194.911 662.731 195.302L673.127 219.914C673.517 220.89 672.893 221.829 671.838 221.829H667.421C666.951 221.829 666.327 221.398 666.131 220.968L664.88 217.648C664.684 217.218 664.059 216.788 663.589 216.788Z" fill="white"/>
</g>
<defs>
<clipPath id="clip0_44_2">
<rect width="800" height="272" fill="white"/>
</clipPath>
</defs>
</svg>
